<svg width="27" height="29" viewBox="0 0 27 29" fill="none" xmlns="http://www.w3.org/2000/svg">
<path d="M5.63897 28.3916C4.76481 28.3916 4.01648 28.087 3.39398 27.4777C2.77147 26.8685 2.46022 26.136 2.46022 25.2805V5.05827C2.0099 5.05827 1.63242 4.90919 1.32779 4.61105C1.02316 4.3129 0.87085 3.94345 0.87085 3.50271C0.87085 3.06197 1.02316 2.69253 1.32779 2.39438C1.63242 2.09623 2.0099 1.94716 2.46022 1.94716H8.81771C8.81771 1.50642 8.97002 1.13697 9.27465 0.838824C9.57928 0.540676 9.95676 0.391602 10.4071 0.391602H16.7646C17.2149 0.391602 17.5924 0.540676 17.897 0.838824C18.2016 1.13697 18.3539 1.50642 18.3539 1.94716H24.7114C25.1617 1.94716 25.5392 2.09623 25.8439 2.39438C26.1485 2.69253 26.3008 3.06197 26.3008 3.50271C26.3008 3.94345 26.1485 4.3129 25.8439 4.61105C25.5392 4.90919 25.1617 5.05827 24.7114 5.05827V25.2805C24.7114 26.136 24.4002 26.8685 23.7777 27.4777C23.1552 28.087 22.4068 28.3916 21.5327 28.3916H5.63897ZM21.5327 5.05827H5.63897V25.2805H21.5327V5.05827ZM13.5858 17.3472L16.6056 20.3027C16.897 20.5879 17.2679 20.7305 17.7182 20.7305C18.1685 20.7305 18.5394 20.5879 18.8308 20.3027C19.1221 20.0175 19.2678 19.6546 19.2678 19.2138C19.2678 18.7731 19.1221 18.4101 18.8308 18.1249L15.8109 15.1694L18.8308 12.2138C19.1221 11.9286 19.2678 11.5657 19.2678 11.1249C19.2678 10.6842 19.1221 10.3212 18.8308 10.036C18.5394 9.75086 18.1685 9.60827 17.7182 9.60827C17.2679 9.60827 16.897 9.75086 16.6056 10.036L13.5858 12.9916L10.566 10.036C10.2746 9.75086 9.90378 9.60827 9.45346 9.60827C9.00314 9.60827 8.63228 9.75086 8.3409 10.036C8.04951 10.3212 7.90382 10.6842 7.90382 11.1249C7.90382 11.5657 8.04951 11.9286 8.3409 12.2138L11.3607 15.1694L8.3409 18.1249C8.04951 18.4101 7.90382 18.7731 7.90382 19.2138C7.90382 19.6546 8.04951 20.0175 8.3409 20.3027C8.63228 20.5879 9.00314 20.7305 9.45346 20.7305C9.90378 20.7305 10.2746 20.5879 10.566 20.3027L13.5858 17.3472Z" fill="white"/>
</svg>
