<svg width="26" height="29" viewBox="0 0 26 29" fill="none" xmlns="http://www.w3.org/2000/svg">
<path d="M2.84762 28.3916C2.14724 28.3916 1.54767 28.1422 1.04892 27.6435C0.55016 27.1447 0.300781 26.5451 0.300781 25.8448C0.300781 25.1444 0.55016 24.5448 1.04892 24.046C1.54767 23.5473 2.14724 23.2979 2.84762 23.2979H23.2224C23.9228 23.2979 24.5223 23.5473 25.0211 24.046C25.5198 24.5448 25.7692 25.1444 25.7692 25.8448C25.7692 26.5451 25.5198 27.1447 25.0211 27.6435C24.5223 28.1422 23.9228 28.3916 23.2224 28.3916H2.84762ZM4.12105 20.7511C3.76024 20.7511 3.45781 20.629 3.21373 20.385C2.96966 20.1409 2.84762 19.8385 2.84762 19.4776V16.5169C2.84762 16.3472 2.87946 16.1827 2.94313 16.0235C3.0068 15.8643 3.10231 15.7211 3.22965 15.5937L14.3721 4.45127L19.1474 9.2266L8.00498 20.369C7.87764 20.4964 7.73438 20.5919 7.5752 20.6556C7.41603 20.7192 7.25154 20.7511 7.08175 20.7511H4.12105ZM5.39447 18.2042H6.54055L15.5818 9.2266L14.3721 8.01685L5.39447 17.0581V18.2042ZM20.58 7.82584L15.8047 3.05051L18.0969 0.758347C18.3303 0.503663 18.6274 0.381626 18.9882 0.392238C19.349 0.40285 19.6462 0.524886 19.8796 0.758347L22.8722 3.75089C23.1056 3.98435 23.2224 4.27617 23.2224 4.62637C23.2224 4.97656 23.1056 5.27899 22.8722 5.53368L20.58 7.82584Z" fill="white"/>
</svg>
