<svg width="58" height="58" viewBox="0 0 58 58" fill="none" xmlns="http://www.w3.org/2000/svg">
<path d="M14.5 45.9166H21.75V33.8333C21.75 33.1485 21.9816 32.5746 22.4448 32.1114C22.908 31.6482 23.482 31.4166 24.1667 31.4166H33.8334C34.5181 31.4166 35.092 31.6482 35.5552 32.1114C36.0184 32.5746 36.25 33.1485 36.25 33.8333V45.9166H43.5V24.1666L29 13.2916L14.5 24.1666V45.9166ZM9.66669 45.9166V24.1666C9.66669 23.4013 9.83787 22.6763 10.1802 21.9916C10.5226 21.3069 10.9959 20.743 11.6 20.2999L26.1 9.42492C26.9459 8.78047 27.9125 8.45825 29 8.45825C30.0875 8.45825 31.0542 8.78047 31.9 9.42492L46.4 20.2999C47.0042 20.743 47.4774 21.3069 47.8198 21.9916C48.1622 22.6763 48.3334 23.4013 48.3334 24.1666V45.9166C48.3334 47.2457 47.8601 48.3836 46.9136 49.3301C45.967 50.2766 44.8292 50.7499 43.5 50.7499H33.8334C33.1486 50.7499 32.5747 50.5183 32.1115 50.0551C31.6483 49.5919 31.4167 49.018 31.4167 48.3332V36.2499H26.5834V48.3332C26.5834 49.018 26.3518 49.5919 25.8886 50.0551C25.4254 50.5183 24.8514 50.7499 24.1667 50.7499H14.5C13.1709 50.7499 12.033 50.2766 11.0865 49.3301C10.14 48.3836 9.66669 47.2457 9.66669 45.9166Z" fill="#2271D1"/>
</svg>
